<svg xmlns="http://www.w3.org/2000/svg" x="0px" y="0px"
width="48" height="48"
viewBox="0 0 172 172"
style=" fill:#000000;"><g fill="none" fill-rule="nonzero" stroke="none" stroke-width="1" stroke-linecap="butt" stroke-linejoin="miter" stroke-miterlimit="10" stroke-dasharray="" stroke-dashoffset="0" font-family="none" font-weight="none" font-size="none" text-anchor="none" style="mix-blend-mode: normal"><path d="M0,172v-172h172v172z" fill="none"></path><g fill="#2ecc71"><path d="M86,3.58333c-31.53333,0 -64.5,25.08333 -64.5,60.91667c0,43 64.5,107.5 64.5,107.5c0,0 64.5,-64.5 64.5,-107.5c0,-35.83333 -32.96667,-60.91667 -64.5,-60.91667zM86,93.16667c-15.76667,0 -28.66667,-12.9 -28.66667,-28.66667c0,-15.76667 12.9,-28.66667 28.66667,-28.66667c15.76667,0 28.66667,12.9 28.66667,28.66667c0,15.76667 -12.9,28.66667 -28.66667,28.66667z"></path></g></g></svg>