<svg xmlns="http://www.w3.org/2000/svg" x="0px" y="0px"
width="64" height="64"
viewBox="0 0 172 172"
style=" fill:#000000;"><g fill="none" fill-rule="nonzero" stroke="none" stroke-width="1" stroke-linecap="butt" stroke-linejoin="miter" stroke-miterlimit="10" stroke-dasharray="" stroke-dashoffset="0" font-family="none" font-weight="none" font-size="none" text-anchor="none" style="mix-blend-mode: normal"><path d="M0,172v-172h172v172z" fill="none"></path><g><path d="M166.625,83.3125v69.875c0,7.39063 -6.04687,13.4375 -13.4375,13.4375h-120.9375c-7.39062,0 -13.4375,-6.04687 -13.4375,-13.4375v-69.875c0,-7.39062 6.04688,-13.4375 13.4375,-13.4375h120.9375c7.39063,0 13.4375,6.04688 13.4375,13.4375z" fill="#ffffff"></path><path d="M30.90625,154.53125l0,-72.5625l106.15625,0v72.5625z" fill="#e9eef4"></path><path d="M138.40625,150.23125c-0.40312,0 -0.94063,-0.13437 -1.34375,-0.26875l-95.94375,-35.34063c-2.15,-0.80625 -3.225,-3.09063 -2.41875,-5.24063c0.80625,-2.15 3.09062,-3.09063 5.24063,-2.41875l95.80937,35.475c2.15,0.80625 3.225,3.09062 2.41875,5.24062c-0.67187,1.6125 -2.15,2.55312 -3.7625,2.55312z" fill="#ffffff"></path><path d="M106.82813,138.80937c-0.5375,0 -0.94062,-0.13437 -1.47812,-0.26875c-2.01562,-0.80625 -3.09063,-3.225 -2.28438,-5.24063l22.44063,-55.9c0.80625,-2.01562 3.225,-3.09062 5.24063,-2.28437c2.01563,0.80625 3.09062,3.225 2.28438,5.24062l-22.44063,55.9c-0.67188,1.6125 -2.15,2.55313 -3.7625,2.55313zM88.6875,166.625h-69.875c-7.39062,0 -13.4375,-6.04687 -13.4375,-13.4375v-120.9375c0,-7.39062 6.04688,-13.4375 13.4375,-13.4375h69.875c7.39063,0 13.4375,6.04688 13.4375,13.4375v120.9375c0,7.39063 -6.04687,13.4375 -13.4375,13.4375z" fill="#ffffff"></path><path d="M53.75,146.46875c-2.96853,0 -5.375,2.40647 -5.375,5.375c0,2.96853 2.40647,5.375 5.375,5.375c2.96853,0 5.375,-2.40647 5.375,-5.375c0,-2.96853 -2.40647,-5.375 -5.375,-5.375zM149.15625,114.21875c-2.96853,0 -5.375,2.40647 -5.375,5.375c0,2.96853 2.40647,5.375 5.375,5.375c2.96853,0 5.375,-2.40647 5.375,-5.375c0,-2.96853 -2.40647,-5.375 -5.375,-5.375zM17.46875,30.90625h72.5625v106.15625h-72.5625z" fill="#e9eef4"></path><path d="M28.35313,153.99375c-0.40313,0 -0.94063,-0.13438 -1.34375,-0.26875c-2.15,-0.80625 -3.225,-3.09062 -2.41875,-5.10625l44.075,-121.20625c0.80625,-2.15 3.09063,-3.225 5.10625,-2.41875c2.15,0.80625 3.225,3.09062 2.41875,5.10625l-44.075,121.20625c-0.5375,1.74687 -2.15,2.6875 -3.7625,2.6875z" fill="#ffffff"></path><path d="M61.00625,64.36562c-0.40313,0 -0.94063,-0.13437 -1.34375,-0.26875l-46.89687,-16.93125c-2.15,-0.80625 -3.225,-3.09062 -2.41875,-5.10625c0.80625,-2.01563 3.09062,-3.225 5.10625,-2.41875l46.7625,17.06563c2.15,0.80625 3.225,3.09062 2.41875,5.10625c-0.5375,1.6125 -2.01562,2.55312 -3.62812,2.55312z" fill="#ffffff"></path><path d="M129.67188,147.00625c-0.40312,0 -0.94063,-0.13437 -1.34375,-0.26875l-83.3125,-30.6375c-2.01562,-0.67187 -3.62812,-2.28438 -4.56875,-4.16562c-0.94062,-2.01562 -0.94062,-4.16562 -0.26875,-6.18125l9.80938,-26.47188c0.80625,-2.15 3.09062,-3.09063 5.24062,-2.41875c2.15,0.80625 3.09063,3.09063 2.41875,5.24063l-9.80938,26.47187l83.3125,30.6375c2.15,0.80625 3.225,3.09062 2.41875,5.10625c-0.80625,1.6125 -2.28437,2.6875 -3.89687,2.6875z" fill="#fcca3d"></path><path d="M90.03125,89.35938h12.09375v60.60313h-12.09375z" fill="#ffffff"></path><path d="M53.75,76.59375c-2.2264,0 -4.03125,1.80485 -4.03125,4.03125c0,2.2264 1.80485,4.03125 4.03125,4.03125c2.2264,0 4.03125,-1.80485 4.03125,-4.03125c0,-2.2264 -1.80485,-4.03125 -4.03125,-4.03125z" fill="#f2a50c"></path><path d="M129.67188,138.94375c-2.2264,0 -4.03125,1.80485 -4.03125,4.03125c0,2.2264 1.80485,4.03125 4.03125,4.03125c2.2264,0 4.03125,-1.80485 4.03125,-4.03125c0,-2.2264 -1.80485,-4.03125 -4.03125,-4.03125zM88.6875,170.65625h-69.875c-9.675,0 -17.46875,-7.79375 -17.46875,-17.46875v-120.9375c0,-9.675 7.79375,-17.46875 17.46875,-17.46875h69.875c9.675,0 17.46875,7.79375 17.46875,17.46875v120.9375c0,9.675 -7.79375,17.46875 -17.46875,17.46875zM18.8125,22.84375c-5.24062,0 -9.40625,4.16563 -9.40625,9.40625v120.9375c0,5.24062 4.16563,9.40625 9.40625,9.40625h69.875c5.24063,0 9.40625,-4.16563 9.40625,-9.40625v-120.9375c0,-5.24062 -4.16562,-9.40625 -9.40625,-9.40625z" fill="#444b54"></path><path d="M153.1875,170.65625h-37.625c-2.28437,0 -4.03125,-1.74687 -4.03125,-4.03125c0,-2.28438 1.74688,-4.03125 4.03125,-4.03125h37.625c5.24062,0 9.40625,-4.16563 9.40625,-9.40625v-69.875c0,-5.24062 -4.16563,-9.40625 -9.40625,-9.40625h-34.9375c-2.28437,0 -4.03125,-1.74688 -4.03125,-4.03125c0,-2.28437 1.74688,-4.03125 4.03125,-4.03125h34.9375c9.675,0 17.46875,7.79375 17.46875,17.46875v69.875c0,9.675 -7.79375,17.46875 -17.46875,17.46875z" fill="#444b54"></path></g></g></svg>