<svg xmlns="http://www.w3.org/2000/svg" id='rickshaw' x="0px" y="0px" viewBox="0 0 172 172"
    style=" fill:#000000; transform:scale(-1,1)">
    <title>Rickshaw</title>
    <g fill="none" fill-rule="nonzero" stroke="none" stroke-width="1" stroke-linecap="butt" stroke-linejoin="miter"
        stroke-miterlimit="10" stroke-dasharray="" stroke-dashoffset="0" font-family="none" font-weight="none"
        font-size="none" text-anchor="none" preserveAspectRatio="none">
        <path d="M0,172v-172h172v172z" fill="none"></path>
        <g>
            <circle cx="423.981" cy="374.476" transform="scale(0.33594,0.33594)" r="38.699" fill="#6d7486"></circle>
            <path
                d="M7.73664,122.93969v1.935c0,8.27078 6.70531,14.68719 14.97609,14.68719c8.27078,0 14.97945,-6.41641 14.97945,-14.68719v-1.935z"
                fill="#6d7486"></path>
            <path
                d="M125.21466,78.36616v5.8218c-0.00019,1.14575 -0.57058,2.21627 -1.52146,2.85547l-7.16924,4.83548c-0.63902,0.43212 -1.11456,1.06617 -1.35047,1.80063l-8.08904,23.78773c-0.45886,1.42342 -1.78353,2.38833 -3.27909,2.38852h-6.29211c-0.4709,-0.00036 -0.92236,-0.18781 -1.25503,-0.5211c-0.33266,-0.33329 -0.51926,-0.78511 -0.51872,-1.25601v-16.985h-12.3017c-1.08299,-0.00019 -2.0096,0.77765 -2.19703,1.8443l-2.41539,13.62898c-0.1347,1.72469 -1.56238,3.06205 -3.29219,3.08391l-15.8025,0.18141c-1.73808,0.01903 -3.20104,-1.29647 -3.36609,-3.0268l-3.60125,-38.43797h-24.25805c-1.77039,5.37164 -1.59268,11.17664 -0.37995,16.80695c0.70102,3.15673 1.66517,6.2492 2.88234,9.245c3.25859,8.14648 7.78703,15.04664 10.17891,18.40937c0.03724,0.05483 0.0775,0.10754 0.1206,0.15789c0.98842,1.28693 2.51941,2.04063 4.14211,2.03914l83.92626,-0.05845l1.12304,-9.0908l12.9393,-4.7552l9.61957,6.26994l2.0378,7.55859l6.03445,-0.00437l3.71177,-1.24297c0.78195,-0.26124 1.30946,-0.99299 1.31016,-1.81742v-43.51902z"
                fill="#333333"></path>
            <path
                d="M166.152,78.36616l-0.30906,-25.89742c-1.91518,-11.90295 -12.18857,-20.65461 -24.24461,-20.65344h-70.735c-8.90906,0 -15.5875,4.22945 -21.23461,10.66266c1.88125,-0.77266 10.04823,5.62023 9.28565,8.22039c0.3383,-1.57715 1.7498,-2.69123 3.3624,-2.65391h59.49151c0.91112,-0.0173 1.79068,0.3338 2.43943,0.97376c0.64876,0.63997 1.01182,1.51465 1.00695,2.42592v26.92203z"
                fill="#ffcf15"></path>
            <circle cx="423.332" cy="376.486" transform="scale(0.33594,0.33594)" r="17.21" fill="#b0b5ca"></circle>
            <path
                d="M110.11762,91.87891h6.40633c-0.63902,0.43212 -1.11456,1.06617 -1.35047,1.80063l-2.85547,8.39508h-2.20039c-2.81547,0 -5.09785,-2.28239 -5.09785,-5.09785c0,-2.81547 2.28239,-5.09785 5.09785,-5.09785z"
                fill="#ffcf15"></path>
            <path d="M91.14723,79.74014h4.59227v21.35219h-7.26297l1.08508,-8.67055z" fill="#6d7486"></path>
            <path d="M95.7395,48.04444v31.6957h-4.59227l0.06719,-15.86969l0.06383,-15.82602z" fill="#6cbff6"></path>
            <path
                d="M88.98749,92.35123h-18.39258c-2.3427,-0.00129 -4.27882,1.82682 -4.41187,4.16573c-0.13305,2.33892 1.58326,4.37479 3.91099,4.63919c0.17732,0.0203 0.35566,0.03039 0.53414,0.03023l17.8487,-0.09406l1.08508,-8.67055z"
                fill="#ffcf15"></path>
            <path
                d="M49.62872,42.47795c1.88125,-0.77266 10.04789,5.62023 9.28531,8.22039l-4.61914,20.78109l-1.22281,5.4993l-0.30906,1.38742h-24.25805c5.6068,-17.01859 13.70625,-26.24344 18.24141,-32.32055c0.93391,-1.24969 1.89469,-2.43891 2.88234,-3.56766z"
                fill="#9ddcfb"></path>
            <path
                d="M41.18594,122.82748c-2.39221,-3.36273 -6.92031,-10.26289 -10.17891,-18.40938c-2.24606,-1.03096 -4.68747,-1.56713 -7.15883,-1.57219c-1.29848,-0.00311 -2.59431,0.11725 -3.87,0.35945c-9.21812,1.76367 -14.65326,9.80602 -15.07654,18.66805c-0.01199,0.29167 0.09556,0.57561 0.29778,0.78614c0.20222,0.21053 0.4816,0.32942 0.77352,0.32917h35.32719l0.00672,-0.00336c-0.04322,-0.05034 -0.08359,-0.10305 -0.12094,-0.15789z"
                fill="#333333"></path>
            <path
                d="M28.12536,95.17311c0.70102,3.15673 1.66517,6.2492 2.88234,9.245c-2.24606,-1.03096 -4.68747,-1.56713 -7.15883,-1.57219c-1.29848,-0.00311 -2.59431,0.11725 -3.87,0.35945v-9.23828c0.0014,-0.42597 0.19043,-0.82967 0.51672,-1.10352c0.32628,-0.27384 0.75665,-0.39 1.17641,-0.3175c4.01109,0.67188 6.38281,2.56992 6.45336,2.62703z"
                fill="#ffcf15"></path>
            <path
                d="M29.16677,122.98873l-0.05711,0.80289c-0.07993,1.35987 -0.55124,2.66764 -1.35719,3.76586c-1.23747,1.66384 -3.20096,2.62933 -5.27422,2.59344c-1.68024,-0.00515 -3.2974,-0.64051 -4.5318,-1.78047c-1.36098,-1.25952 -2.19003,-2.99092 -2.31797,-4.84086l-0.04703,-0.54086z"
                fill="#b0b5ca"></path>
            <path
                d="M19.97888,94.33663v8.50594c-1.53746,0.02733 -2.96997,-0.77725 -3.7467,-2.10436c-0.77673,-1.32711 -0.77673,-2.97011 0,-4.29722c0.77673,-1.32711 2.20924,-2.13169 3.7467,-2.10436z"
                fill="#e94253"></path>
            <path
                d="M161.15661,125.33358c0.01454,0.29336 -0.09189,0.57984 -0.29444,0.79255c-0.20255,0.21271 -0.48348,0.33302 -0.7772,0.33284h-6.39961c-0.54648,0.00535 -1.00685,-0.40694 -1.06156,-0.9507c-0.49276,-5.3288 -4.96342,-9.40513 -10.31496,-9.40513c-5.35154,0 -9.8222,4.07632 -10.31496,9.40513c-0.05739,0.54375 -0.51817,0.95511 -1.06492,0.9507h-6.58438c-0.2921,0.00072 -0.57179,-0.11801 -0.77417,-0.32864c-0.20238,-0.21063 -0.30985,-0.49484 -0.29747,-0.78668c0.00672,-0.1075 0.01008,-0.21164 0.0168,-0.31914c0.60805,-9.9068 7.49141,-18.705 18.92672,-18.705c9.97063,0 18.14398,8.75117 18.91328,18.62437c0.01008,0.13102 0.01948,0.26002 0.02688,0.38969z"
                fill="#333333"></path>
            <path
                d="M166.152,56.36561v10.97172h-7.90125c-0.80862,-0.00074 -1.46395,-0.65607 -1.46469,-1.46469v-11.93922c-0.00027,-0.38854 0.15396,-0.76125 0.4287,-1.03599c0.27474,-0.27474 0.64744,-0.42897 1.03599,-0.4287h7.59219c0.20693,1.28862 0.31028,2.59175 0.30906,3.89688z"
                fill="#e94253"></path>
            <path
                d="M166.152,108.45944v5.32259h-4.02453c-0.2571,0.00062 -0.50389,-0.101 -0.686,-0.28248c-0.18211,-0.18148 -0.28459,-0.42792 -0.28486,-0.68502v-3.38289c-0.00045,-0.25762 0.1017,-0.50483 0.28386,-0.68699c0.18217,-0.18217 0.42937,-0.28431 0.68699,-0.28386z"
                fill="#ffcf15"></path>
            <path
                d="M166.152,97.23913v5.4657h-11.89891c-1.50931,0 -2.73285,-1.22354 -2.73285,-2.73285c0,-1.50931 1.22354,-2.73285 2.73285,-2.73285z"
                fill="#e94253"></path>
            <path
                d="M166.152,86.50928v5.4657h-11.89891c-1.50931,0 -2.73285,-1.22354 -2.73285,-2.73285c0,-1.50931 1.22354,-2.73285 2.73285,-2.73285z"
                fill="#e94253"></path>
            <path
                d="M114.29669,58.73733l-1.70287,-4.05477c-0.10265,-0.32366 -0.40288,-0.54373 -0.74242,-0.54422h-5.09987c-0.36514,-0.00068 -0.68194,0.25192 -0.76258,0.60805l-1.21609,4.05813c-0.05362,0.23806 0.00375,0.48758 0.15595,0.67832c0.1522,0.19074 0.38277,0.30206 0.62678,0.30262h7.97549c0.25656,0.00005 0.49772,-0.12241 0.64905,-0.32958c0.15133,-0.20717 0.19464,-0.47416 0.11655,-0.71854z"
                fill="#c4374c"></path>
            <path
                d="M51.38567,122.98672c-0.0431,-0.05035 -0.08336,-0.10306 -0.1206,-0.15789c-2.39221,-3.36273 -6.92031,-10.26289 -10.17891,-18.40938c-1.21717,-2.9958 -2.18133,-6.08827 -2.88234,-9.245c-1.21273,-5.63031 -1.39045,-11.43531 0.37995,-16.80695h-10.07813c-1.77039,5.37164 -1.59268,11.17664 -0.37995,16.80695c0.70102,3.15673 1.66517,6.2492 2.88234,9.245c3.25859,8.14648 7.78703,15.04664 10.17891,18.40938c0.03724,0.05483 0.0775,0.10754 0.1206,0.15789c0.98842,1.28693 2.51941,2.04063 4.14211,2.03914l9.9582,-0.00672c-1.57945,-0.03294 -3.05873,-0.78043 -4.02218,-2.03242z"
                fill="#181818"></path>
            <path
                d="M49.62872,42.47795c-0.99102,1.12539 -1.9518,2.31461 -2.88234,3.56766c-4.53516,6.07711 -12.63461,15.30195 -18.24141,32.32055h10.07813c5.48216,-16.63966 13.34512,-25.82687 17.93134,-31.90802c-2.36769,-2.32805 -5.75696,-4.44345 -6.88571,-3.98019z"
                fill="#84c0d8"></path>
            <path
                d="M47.63997,85.3335v4.3907c0.00027,0.18362 -0.07256,0.3598 -0.2024,0.48964c-0.12984,0.12984 -0.30602,0.20266 -0.48964,0.2024h-10.21922c-0.38305,0.00074 -0.69428,-0.30898 -0.69539,-0.69203v-4.3907c0.00111,-0.38305 0.31234,-0.69277 0.69539,-0.69203h10.21922c0.18362,-0.00027 0.3598,0.07256 0.48964,0.2024c0.12984,0.12984 0.20266,0.30602 0.2024,0.48964z"
                fill="#e94253"></path>
            <path
                d="M142.68576,119.30182c-4.12079,0.00037 -7.46108,3.34117 -7.46084,7.46196c0.00025,4.12079 3.34094,7.46118 7.46173,7.46106c4.12079,-0.00012 7.46128,-3.34072 7.46128,-7.46151c-0.005,-4.11907 -3.34311,-7.45688 -7.46218,-7.46151zM142.68576,130.86546c-2.26546,-0.00037 -4.10171,-1.83712 -4.10146,-4.10258c0.00025,-2.26546 1.8369,-4.10181 4.10236,-4.10168c2.26546,0.00012 4.10191,1.83667 4.10191,4.10213c-0.00296,2.26458 -1.83822,4.09954 -4.1028,4.10213z"
                fill="#000000"></path>
            <path
                d="M142.07066,30.42116h-70.73466c-9.7825,0 -17.87187,4.73672 -25.46406,14.90622c-0.53548,0.71723 -1.12069,1.47813 -1.74687,2.29177c-4.6655,6.06972 -11.71616,15.24182 -16.7448,30.50716c-1.39918,4.24726 -1.74687,8.98532 -1.04947,14.1685c-1.25766,-0.51997 -2.57029,-0.89549 -3.91266,-1.11934c-1.46467,-0.24976 -2.90204,0.56896 -3.43429,1.95616c-2.65016,0.64941 -4.51931,3.01769 -4.53516,5.74621c0.0011,1.55596 0.61944,3.04792 1.71933,4.14849c-2.55083,1.06879 -4.83946,2.67821 -6.708,4.71723c-3.45377,3.74167 -5.49963,8.8328 -5.76133,14.33613c-0.03434,0.74138 0.23285,1.46509 0.7407,2.00629c0.50785,0.5412 1.21313,0.85382 1.95519,0.86664v0.25834c0,9.17916 7.31571,16.36923 16.65545,16.36923c9.33973,0 16.65847,-7.18906 16.65847,-16.36923v-0.25531h1.3152c1.29839,1.30184 3.061,2.0342 4.89965,2.03578h76.47953c0.47701,0.88842 1.40568,1.44076 2.41405,1.4358h3.69766c0.8207,7.08828 6.78123,12.42465 14.24644,12.42465c7.4652,0 13.42843,-5.33603 14.24912,-12.42465h3.54683c1.21325,0.00313 2.28405,-0.79211 2.63173,-1.95448l2.66096,-0.89091c1.4674,-0.49048 2.45632,-1.86491 2.45503,-3.41212v-65.51789c-0.01722,-14.48097 -11.75306,-26.21531 -26.23403,-26.23067zM46.79072,49.66668c0.63559,-0.82674 1.23054,-1.60074 1.77442,-2.33006c0.75922,-1.01722 1.51877,-1.9696 2.28102,-2.86588c0.71857,0.25263 2.16445,1.03603 3.87907,2.48594c2.18158,1.84262 2.98077,3.24751 3.0278,3.64156c0,0.00806 -0.00437,0.01579 -0.00638,0.02385l-5.85774,26.34993h-20.55736c4.78442,-13.41264 11.16455,-21.71702 15.45917,-27.30534zM61.02607,51.34939c0.16094,-0.79344 0.86763,-1.35729 1.677,-1.33804c0.01545,0 0.03124,0 0.04703,0h27.31474l-0.05375,13.10727c-3.25101,1.91273 -5.29956,5.35375 -5.43144,9.12339l-0.68565,18.71441h-12.82542c-2.99137,-0.00239 -5.54244,2.16622 -6.02171,5.11895c-0.47928,2.95273 1.25488,5.81691 4.09343,6.76081l3.51693,15.45716l-12.47403,0.14345h-0.01881c-0.85417,-0.00428 -1.56741,-0.65245 -1.65315,-1.50231l-3.5092,-37.44527l6.73857,2.13555c0.43458,0.1379 0.88781,0.20804 1.34375,0.20795c1.93609,-0.00138 3.65491,-1.23931 4.26977,-3.07517c0.37635,-1.1382 0.28131,-2.37971 -0.26391,-3.44736c-0.54522,-1.06765 -1.49522,-1.87256 -2.63792,-2.23502l-7.71245,-2.44596zM57.77084,50.53071c0,-0.00705 0,-0.01075 0.0037,-0.01881v0c-0.00034,0.00672 -0.00235,0.0131 -0.0037,0.01881zM71.08807,99.79292c-0.73143,0.01509 -1.43658,-0.2728 -1.94844,-0.7955c-0.78768,-0.78146 -1.02576,-1.96109 -0.60282,-2.98688c0.42293,-1.02579 1.42322,-1.69484 2.53278,-1.69407h17.07033l-0.67389,5.38407h-3.5559h-0.01209v0zM80.03073,103.08813l-2.38717,13.47109c-0.00974,0.05442 -0.0168,0.10952 -0.02116,0.16495c-0.06025,0.81785 -0.71331,1.46661 -1.53154,1.52146l-3.4363,-15.10375zM87.2554,90.95709l0.68095,-18.59112c0.06552,-1.84945 0.79571,-3.61326 2.05661,-4.96784l-0.0514,12.52073l-1.38104,11.03823zM55.5177,76.12848l0.4908,-2.20711l7.42758,2.35627c0.28652,0.09088 0.52474,0.29266 0.66151,0.56033c0.13677,0.26767 0.1607,0.57895 0.06646,0.86438c-0.19573,0.58279 -0.82143,0.90221 -1.40825,0.71891zM22.13257,94.53584c1.76294,0.31664 3.44865,0.96898 4.96549,1.92156c0.43321,1.86498 0.96098,3.70673 1.58126,5.51811c-1.42686,-0.34501 -2.88947,-0.52035 -4.35745,-0.52238c-0.7422,0 -1.47163,0.03359 -2.1883,0.10078zM18.7732,96.90856v3.93988c-0.60822,-0.47232 -0.96405,-1.19919 -0.96405,-1.96927c0,-0.77008 0.35584,-1.49694 0.96405,-1.96927zM36.34844,125.20962c0,7.29522 -5.84162,13.00985 -13.29909,13.00985c-7.45748,0 -13.29607,-5.71463 -13.29607,-13.00985v-0.25531h4.80928c0.34166,1.90594 1.30121,3.64642 2.7305,4.95273c1.54634,1.41316 3.56242,2.20163 5.65719,2.21248c2.59976,0.03612 5.05903,-1.17721 6.61226,-3.26229c0.8537,-1.14615 1.40648,-2.48802 1.6078,-3.90292h5.17814zM18.01834,124.9543h9.73245c-0.15671,0.67828 -0.45177,1.31691 -0.86672,1.87587c-0.91927,1.24473 -2.38686,1.96411 -3.93383,1.92828c-1.26412,-0.00704 -2.47967,-0.4877 -3.40674,-1.34711c-0.72324,-0.66423 -1.25052,-1.51406 -1.52448,-2.45705zM7.09231,121.59493c0.84925,-11.52333 9.4553,-16.78243 17.22956,-16.78243c2.01115,0.00267 4.00243,0.39796 5.86211,1.16369c2.29461,5.46147 5.10609,10.69106 8.39609,15.6174zM142.76034,137.49116c-5.59134,0 -10.08249,-3.88713 -10.86556,-9.10962c1.21276,-0.20949 2.13321,-1.20809 2.24339,-2.43387c0.41415,-4.46341 4.15924,-7.87709 8.64182,-7.87709c4.48258,0 8.22768,3.41369 8.64182,7.87709c0.10806,1.21288 1.01035,2.20552 2.20745,2.42849c-0.78038,5.22618 -5.27388,9.11499 -10.86825,9.11499zM154.70123,125.06651c-0.83872,-5.94006 -5.92243,-10.35639 -11.92141,-10.35639c-5.99898,0 -11.08269,4.41633 -11.92141,10.35639h-5.3965c0.84858,-11.52266 9.45429,-16.78075 17.22788,-16.78075c4.35207,0 8.55532,1.85941 11.83474,5.23592c3.0371,3.13584 4.93101,7.20219 5.37702,11.54483zM164.94531,112.38957h-1.63534v-1.96322h1.63534zM164.94531,101.31203h-10.21888c-0.38044,0.0068 -0.73493,-0.19227 -0.92714,-0.52066c-0.19221,-0.32839 -0.19221,-0.73494 0,-1.06333c0.19221,-0.32839 0.5467,-0.52746 0.92714,-0.52066h10.21888zM164.94531,90.58152h-10.21888c-0.38044,0.0068 -0.73493,-0.19227 -0.92714,-0.52066c-0.19221,-0.32839 -0.19221,-0.73494 0,-1.06333c0.19221,-0.32839 0.5467,-0.52746 0.92714,-0.52066h10.21888zM164.94531,85.11749h-10.21888c-1.58532,-0.01383 -3.05617,0.82399 -3.85285,2.19466c-0.79668,1.37067 -0.79668,3.06341 0,4.43408c0.79668,1.37067 2.26753,2.2085 3.85285,2.19466h10.21888v1.90712h-10.21888c-1.58532,-0.01383 -3.05617,0.82399 -3.85285,2.19466c-0.79668,1.37067 -0.79668,3.06341 0,4.43408c0.79668,1.37067 2.26753,2.2085 3.85285,2.19466h10.21888v2.39557h-2.34619c-1.46205,0.00167 -2.64687,1.18648 -2.64853,2.64853v3.38491c0.00167,1.46205 1.18648,2.64687 2.64853,2.64853h2.34619v6.42077c0.00011,0.10214 -0.06509,0.19291 -0.16192,0.22541l-1.78517,0.59763c-0.81351,-4.44856 -2.923,-8.55769 -6.06367,-11.81156c-3.91804,-4.0336 -8.97659,-6.25482 -14.24375,-6.25482c-5.92459,0 -11.06343,2.17452 -14.86087,6.28909c-3.11142,3.45531 -5.06699,7.79547 -5.59403,12.41524h-76.31324c-1.1493,0.00044 -2.22802,-0.55437 -2.89612,-1.48955c-2.37172,-3.3362 -6.82591,-10.12717 -10.01564,-18.12887c-3.64324,-9.1375 -4.57446,-17.09653 -2.78156,-23.68091h21.47648l3.46016,36.91953c0.25758,2.57182 2.41577,4.53384 5.00043,4.54591h0.05745l15.80284,-0.18141c2.57071,-0.01701 4.70804,-1.98379 4.93828,-4.54423l2.40229,-13.55541c0.04661,-0.2635 0.27562,-0.45555 0.54321,-0.45553h10.62234v15.30464c0.00259,1.90745 1.54834,3.45305 3.45579,3.45545h6.29043c2.21707,0.00716 4.18496,-1.41845 4.86908,-3.52734l8.09609,-23.8136c0.12195,-0.37604 0.36598,-0.70059 0.69338,-0.92215l7.16924,-4.83448c1.41355,-0.95184 2.26065,-2.54479 2.25952,-4.24894v-4.14245h37.57898zM94.53281,81.7084v17.99214h-3.6812l2.25078,-17.99214zM93.30899,78.34902l0.1159,-28.337h1.10859v28.337zM107.98946,52.74655h-0.76359c-1.12327,-0.00475 -2.10559,0.75568 -2.38247,1.8443l-1.20669,4.01815c-0.01041,0.03561 -0.02016,0.07155 -0.02822,0.10784c-0.16817,0.73664 0.00825,1.50978 0.47931,2.10056c0.47107,0.59078 1.18552,0.93491 1.94112,0.93497h7.97482c0.79272,0.00013 1.53785,-0.37833 2.00533,-1.01854c0.46749,-0.64021 0.60113,-1.46518 0.35967,-2.22023c-0.01512,-0.0467 -0.03191,-0.09272 -0.05073,-0.13773l-1.67969,-4.00706c-0.3509,-0.97547 -1.27727,-1.62493 -2.31394,-1.62224h-0.97758v-2.73453h10.93443c0.44948,-0.01148 0.8844,0.15979 1.20534,0.47468c0.33558,0.32738 0.52355,0.77718 0.5207,1.24599v32.74282c0.00052,0.58716 -0.29147,1.13601 -0.7787,1.46368l-6.74327,4.54725h-5.8947c-3.71066,0.00396 -6.72762,2.99233 -6.76691,6.70278c-0.03929,3.71046 2.91372,6.76204 6.62346,6.84457l-4.48947,13.20402c-0.23407,0.72979 -0.91328,1.22439 -1.67969,1.22315h-6.29077c-0.02554,0.00009 -0.05006,-0.00999 -0.06815,-0.02802c-0.01809,-0.01803 -0.02826,-0.04252 -0.02826,-0.06806v-68.35287h10.09593zM111.72576,56.10593l0.95944,2.28706h-5.47645l0.68498,-2.28706zM113.91439,93.84548l-2.3267,6.83498h-0.99706c-1.22921,0.01219 -2.37029,-0.6366 -2.98844,-1.69914c-0.61815,-1.06254 -0.61815,-2.37517 0,-3.43771c0.61815,-1.06254 1.75923,-1.71133 2.98844,-1.69914zM164.94531,56.65183v9.2927h-6.00623v-11.50855h5.89705c0.07055,0.72966 0.10918,1.46805 0.10918,2.21584zM158.72375,51.07527c-1.73556,0.00204 -3.142,1.40848 -3.14404,3.14404v11.93754c0.00185,1.73564 1.4084,3.14219 3.14404,3.14404h6.22156v7.66979h-37.57931v-25.23831c0.00588,-1.36007 -0.53617,-2.66522 -1.50385,-3.62095c-0.96768,-0.95573 -2.27946,-1.48153 -3.63935,-1.45876h-59.45153c-1.02806,-0.02535 -2.03866,0.26891 -2.89242,0.8422c-0.71132,-0.95066 -1.52006,-1.82437 -2.41304,-2.60688c-1.28996,-1.1677 -2.71201,-2.18059 -4.23718,-3.01806c5.52348,-5.5517 11.29086,-8.08938 18.10703,-8.08938h70.735c10.48008,0.01351 19.61523,7.13576 22.1843,17.29608z"
                fill="#000000"></path>
            <path
                d="M47.41926,83.24733h-10.21754c-1.31018,0.00148 -2.37192,1.06322 -2.3734,2.3734v4.3897c0.00222,1.30971 1.06369,2.37073 2.3734,2.37239h10.21754c1.31049,-0.0013 2.37259,-1.06324 2.37407,-2.37373v-4.38835c-0.00167,-1.31036 -1.06371,-2.3721 -2.37407,-2.3734zM46.43395,89.02344h-8.24626v-2.41875h8.24626z"
                fill="#000000"></path>
        </g>
    </g>
</svg>