<?xml version="1.0" encoding="iso-8859-1"?>
<!-- Generator: Adobe Illustrator 19.0.0, SVG Export Plug-In . SVG Version: 6.00 Build 0)  -->
<svg version="1.1" id="Layer_1" xmlns="http://www.w3.org/2000/svg" xmlns:xlink="http://www.w3.org/1999/xlink" x="0px" y="0px"
	 viewBox="0 0 512 512" style="enable-background:new 0 0 512 512;" xml:space="preserve">
<g transform="translate(1 1)">
	<g>
		<path style="fill:#5e035e;" d="M417.133,511H408.6c-5.12,0-8.533-3.413-8.533-8.533c0-5.12,3.413-8.533,8.533-8.533h8.533
			c5.12,0,8.533,3.413,8.533,8.533C425.667,507.587,422.253,511,417.133,511z"/>
		<path style="fill:#5e035e;" d="M376.173,511H359.96c-5.12,0-8.533-3.413-8.533-8.533c0-5.12,3.413-8.533,8.533-8.533h16.213
			c5.12,0,8.533,3.413,8.533,8.533C384.707,507.587,380.44,511,376.173,511z M326.68,511h-16.213c-5.12,0-8.533-3.413-8.533-8.533
			c0-5.12,3.413-8.533,8.533-8.533h16.213c5.12,0,8.533,3.413,8.533,8.533C335.213,507.587,331.8,511,326.68,511z"/>
		<path style="fill:#5e035e;" d="M278.04,511h-16.213c-5.12,0-8.533-3.413-8.533-8.533c0-5.12,3.413-8.533,8.533-8.533h16.213
			c5.12,0,8.533,3.413,8.533,8.533C286.573,507.587,283.16,511,278.04,511z M229.4,511h-17.067c-5.12,0-8.533-3.413-8.533-8.533
			c0-5.12,3.413-8.533,8.533-8.533H229.4c5.12,0,8.533,3.413,8.533,8.533C237.933,507.587,233.667,511,229.4,511z M179.907,511
			h-16.213c-5.12,0-8.533-3.413-8.533-8.533c0-5.12,3.413-8.533,8.533-8.533h16.213c5.12,0,8.533,3.413,8.533,8.533
			C188.44,507.587,185.027,511,179.907,511z M131.267,511h-16.213c-5.12,0-8.533-3.413-8.533-8.533c0-5.12,3.413-8.533,8.533-8.533
			h16.213c5.12,0,8.533,3.413,8.533,8.533C139.8,507.587,135.533,511,131.267,511z M81.773,511H65.56
			c-5.12,0-8.533-3.413-8.533-8.533c0-5.12,3.413-8.533,8.533-8.533h16.213c5.12,0,8.533,3.413,8.533,8.533
			C90.307,507.587,86.893,511,81.773,511z M34.84,503.32c-1.707,0-3.413-0.853-5.12-1.707c-5.12-3.413-10.24-7.68-13.653-13.653
			c-2.56-4.267-1.707-9.387,2.56-11.947c4.267-2.56,9.387-1.707,11.947,2.56c2.56,4.267,5.12,6.827,8.533,9.387
			c4.267,2.56,5.12,7.68,2.56,11.947C39.96,502.467,37.4,503.32,34.84,503.32z M16.92,460.653c-0.853,0-0.853,0-1.707,0
			c-4.267-0.853-7.68-5.12-6.827-9.387c0.853-6.827,3.413-12.8,6.827-17.92c2.56-4.267,7.68-5.12,11.947-2.56s5.12,7.68,2.56,11.947
			c-2.56,3.413-4.267,7.68-4.267,11.947C24.6,458.093,21.187,460.653,16.92,460.653z M48.493,427.373
			c-3.413,0-7.68-2.56-8.533-6.827s1.707-9.387,5.973-10.24c4.267-0.853,8.533-1.707,12.8-1.707h5.973
			c5.12,0,8.533,3.413,8.533,8.533s-3.413,8.533-8.533,8.533h-5.973c-2.56,0-5.973,0-8.533,0.853
			C49.347,426.52,48.493,427.373,48.493,427.373z M203.8,425.667h-8.533c-5.12,0-8.533-3.413-8.533-8.533s3.413-8.533,8.533-8.533
			h8.533c1.707,0,4.267,0,5.973-0.853c4.267-0.853,9.387,2.56,10.24,6.827c0.853,4.267-2.56,9.387-6.827,10.24
			C209.773,425.667,207.213,425.667,203.8,425.667z M161.987,425.667h-16.213c-5.12,0-8.533-3.413-8.533-8.533
			s3.413-8.533,8.533-8.533h16.213c5.12,0,8.533,3.413,8.533,8.533S167.107,425.667,161.987,425.667z M113.347,425.667H97.133
			c-5.12,0-8.533-3.413-8.533-8.533s3.413-8.533,8.533-8.533h16.213c5.12,0,8.533,3.413,8.533,8.533
			S118.467,425.667,113.347,425.667z M237.933,407.747c-1.707,0-3.413-0.853-5.12-1.707c-3.413-2.56-4.267-8.533-1.707-11.947
			c2.56-3.413,4.267-7.68,5.12-11.947s5.973-7.68,10.24-5.973c4.267,0.853,7.68,5.973,5.973,10.24
			c-1.707,5.973-4.267,11.947-8.533,17.92C243.907,406.893,240.493,407.747,237.933,407.747z M241.347,361.667
			c-2.56,0-5.973-1.707-7.68-4.267c-2.56-3.413-5.12-6.827-8.533-10.24c-3.413-2.56-4.267-8.533-1.707-11.947
			c2.56-3.413,8.533-4.267,11.947-1.707c5.12,4.267,9.387,9.387,12.8,14.507c2.56,4.267,0.853,9.387-3.413,11.947
			C243.907,361.667,242.2,361.667,241.347,361.667z M199.533,340.333H183.32c-5.12,0-8.533-3.413-8.533-8.533
			s3.413-8.533,8.533-8.533h16.213c5.12,0,8.533,3.413,8.533,8.533S204.653,340.333,199.533,340.333z M150.893,340.333H134.68
			c-5.12,0-8.533-3.413-8.533-8.533s3.413-8.533,8.533-8.533h16.213c5.12,0,8.533,3.413,8.533,8.533
			S156.013,340.333,150.893,340.333z"/>
		<path style="fill:#5e035e;" d="M101.4,340.333h-8.533c-5.12,0-8.533-3.413-8.533-8.533s3.413-8.533,8.533-8.533h8.533
			c5.12,0,8.533,3.413,8.533,8.533S106.52,340.333,101.4,340.333z"/>
		<path style="fill:#8e048e;" d="M92.867,7.533c-35.84,0-59.733,44.373-59.733,93.013c0,29.013,5.12,45.227,14.507,72.533
			c17.92,56.32,45.227,116.907,45.227,116.907s27.307-60.587,45.227-116.907c9.387-28.16,14.507-43.52,14.507-72.533
			C152.6,51.907,128.707,7.533,92.867,7.533"/>
	</g>
	<path style="fill:#5f075f;" d="M92.867,7.533c35.84,0,59.733,44.373,59.733,93.013c0,29.013-5.12,45.227-14.507,72.533
		c-17.92,56.32-45.227,116.907-45.227,116.907S132.12,229.4,157.72,173.08c12.8-28.16,20.48-43.52,20.48-72.533
		C178.2,51.907,144.067,7.533,92.867,7.533"/>
	<path style="fill:#FFFFFF;" d="M33.133,100.547c0-48.64,23.893-93.013,59.733-93.013c-51.2,0-85.333,44.373-85.333,93.013
		c0,29.013,7.68,45.227,20.48,72.533c25.6,56.32,64.853,116.907,64.853,116.907S65.56,229.4,47.64,173.08
		C38.253,144.92,33.133,129.56,33.133,100.547"/>
	<path style="fill:#ffff00;" d="M135.533,92.867c0-23.893-18.773-42.667-42.667-42.667S50.2,68.973,50.2,92.867
		s18.773,42.667,42.667,42.667S135.533,116.76,135.533,92.867"/>
	<path style="fill:#8e048e;" d="M417.133,177.347c-35.84,0-59.733,44.373-59.733,93.013c0,29.013,5.12,45.227,14.507,72.533
		c17.92,56.32,45.227,116.907,45.227,116.907s27.307-60.587,45.227-116.907c9.387-28.16,14.507-43.52,14.507-72.533
		C476.867,222.573,452.973,177.347,417.133,177.347"/>
	<path style="fill:#5f075f;" d="M417.133,177.347c35.84,0,59.733,44.373,59.733,93.013c0,29.013-5.12,45.227-14.507,72.533
		c-17.92,56.32-45.227,116.907-45.227,116.907s39.253-60.587,64.853-116.907c12.8-28.16,20.48-43.52,20.48-72.533
		C502.467,222.573,468.333,177.347,417.133,177.347"/>
	<path style="fill:#FFFFFF;" d="M357.4,270.36c0-48.64,23.893-93.013,59.733-93.013c-51.2,0-85.333,44.373-85.333,93.013
		c0,29.013,7.68,45.227,20.48,72.533c25.6,56.32,64.853,116.907,64.853,116.907s-27.307-60.587-45.227-116.907
		C362.52,315.587,357.4,299.373,357.4,270.36"/>
	<path style="fill:#ffff00;" d="M459.8,262.68c0-23.893-18.773-42.667-42.667-42.667c-23.893,0-42.667,18.773-42.667,42.667
		c0,23.893,18.773,42.667,42.667,42.667C441.027,305.347,459.8,286.573,459.8,262.68"/>
	<path d="M92.867,298.52c-2.56,0-5.973-1.707-6.827-4.267c0-0.853-40.107-61.44-65.707-117.76C7.533,148.333-1,131.267-1,99.693
		C-1,50.2,33.987-1,92.867-1s93.867,51.2,93.867,101.547c0,30.72-7.68,47.787-21.333,76.8c-25.6,56.32-64.853,116.907-65.707,117.76
		C98.84,296.813,95.427,298.52,92.867,298.52z M92.867,16.067c-47.787,0-76.8,42.667-76.8,84.48c0,27.307,6.827,41.813,19.627,69.12
		c18.773,40.96,45.227,83.627,57.173,104.107c12.8-20.48,38.4-63.147,57.173-104.107c12.8-27.307,19.627-41.813,19.627-69.12
		C169.667,58.733,140.653,16.067,92.867,16.067z"/>
	<path d="M92.867,144.067c-28.16,0-51.2-23.04-51.2-51.2s23.04-51.2,51.2-51.2s51.2,23.04,51.2,51.2S121.027,144.067,92.867,144.067
		z M92.867,58.733c-18.773,0-34.133,15.36-34.133,34.133S74.093,127,92.867,127S127,111.64,127,92.867S111.64,58.733,92.867,58.733z
		"/>
	<path d="M417.133,469.187c-2.56,0-5.973-1.707-6.827-4.267c0-0.853-40.107-61.44-65.707-117.76
		c-12.8-28.16-21.333-45.227-21.333-76.8c0-49.493,34.987-100.693,93.867-100.693S511,220.867,511,271.213
		c0,30.72-7.68,47.787-21.333,76.8c-25.6,56.32-64.853,116.907-65.707,117.76C423.107,467.48,419.693,469.187,417.133,469.187z
		 M417.133,186.733c-47.787,0-76.8,42.667-76.8,84.48c0,27.307,6.827,41.813,19.627,69.12
		c18.773,40.96,45.227,83.627,57.173,104.107c12.8-20.48,38.4-63.147,57.173-104.107c12.8-27.307,19.627-41.813,19.627-69.12
		C493.933,229.4,464.92,186.733,417.133,186.733z"/>
	<path d="M417.133,314.733c-28.16,0-51.2-23.04-51.2-51.2c0-28.16,23.04-51.2,51.2-51.2c28.16,0,51.2,23.04,51.2,51.2
		C468.333,291.693,445.293,314.733,417.133,314.733z M417.133,229.4C398.36,229.4,383,244.76,383,263.533
		s15.36,34.133,34.133,34.133s34.133-15.36,34.133-34.133S435.907,229.4,417.133,229.4z"/>
	<path d="M417.133,502.467H408.6c-5.12,0-8.533-3.413-8.533-8.533c0-5.12,3.413-8.533,8.533-8.533h8.533
		c5.12,0,8.533,3.413,8.533,8.533C425.667,499.053,422.253,502.467,417.133,502.467z"/>
	<path d="M376.173,502.467H359.96c-5.12,0-8.533-3.413-8.533-8.533c0-5.12,3.413-8.533,8.533-8.533h16.213
		c5.12,0,8.533,3.413,8.533,8.533C384.707,499.053,380.44,502.467,376.173,502.467z M326.68,502.467h-16.213
		c-5.12,0-8.533-3.413-8.533-8.533c0-5.12,3.413-8.533,8.533-8.533h16.213c5.12,0,8.533,3.413,8.533,8.533
		C335.213,499.053,331.8,502.467,326.68,502.467z"/>
	<path d="M278.04,502.467h-16.213c-5.12,0-8.533-3.413-8.533-8.533c0-5.12,3.413-8.533,8.533-8.533h16.213
		c5.12,0,8.533,3.413,8.533,8.533C286.573,499.053,283.16,502.467,278.04,502.467z M229.4,502.467h-16.213
		c-5.12,0-8.533-3.413-8.533-8.533c0-5.12,3.413-8.533,8.533-8.533H229.4c5.12,0,8.533,3.413,8.533,8.533
		C237.933,499.053,233.667,502.467,229.4,502.467z M179.907,502.467h-16.213c-5.12,0-8.533-3.413-8.533-8.533
		c0-5.12,3.413-8.533,8.533-8.533h16.213c5.12,0,8.533,3.413,8.533,8.533C188.44,499.053,185.027,502.467,179.907,502.467z
		 M131.267,502.467h-16.213c-5.12,0-8.533-3.413-8.533-8.533c0-5.12,3.413-8.533,8.533-8.533h16.213c5.12,0,8.533,3.413,8.533,8.533
		C139.8,499.053,135.533,502.467,131.267,502.467z M82.627,502.467H65.56c-5.12,0-8.533-3.413-8.533-8.533
		c0-5.12,3.413-8.533,8.533-8.533h16.213c5.12,0,8.533,3.413,8.533,8.533C90.307,499.053,86.893,502.467,82.627,502.467z
		 M34.84,494.787c-1.707,0-3.413-0.853-5.12-1.707c-5.12-3.413-10.24-7.68-13.653-13.653c-2.56-4.267-1.707-9.387,2.56-11.947
		c4.267-2.56,9.387-1.707,11.947,2.56c2.56,4.267,5.12,6.827,9.387,9.387c4.267,2.56,5.12,7.68,2.56,11.947
		C39.96,493.933,37.4,494.787,34.84,494.787z M16.92,452.12c-0.853,0-0.853,0-1.707,0c-4.267-0.853-7.68-5.12-6.827-9.387
		c0.853-6.827,3.413-12.8,6.827-17.92c2.56-4.267,7.68-5.12,11.947-2.56c4.267,2.56,5.12,7.68,2.56,11.947
		c-2.56,3.413-4.267,7.68-4.267,11.947C24.6,449.56,21.187,452.12,16.92,452.12z M48.493,418.84c-3.413,0-7.68-2.56-8.533-6.827
		s1.707-9.387,5.973-10.24c4.267-0.853,8.533-1.707,12.8-1.707h5.973c5.12,0,8.533,3.413,8.533,8.533
		c0,5.12-3.413,8.533-8.533,8.533h-5.973c-2.56,0-5.973,0-8.533,0.853C49.347,417.987,48.493,418.84,48.493,418.84z M203.8,417.133
		h-8.533c-5.12,0-8.533-3.413-8.533-8.533c0-5.12,3.413-8.533,8.533-8.533h8.533c1.707,0,4.267,0,5.973-0.853
		c4.267-0.853,9.387,2.56,10.24,6.827c0.853,4.267-2.56,9.387-6.827,10.24C209.773,417.133,206.36,417.133,203.8,417.133z
		 M161.987,417.133h-16.213c-5.12,0-8.533-3.413-8.533-8.533c0-5.12,3.413-8.533,8.533-8.533h16.213c5.12,0,8.533,3.413,8.533,8.533
		C170.52,413.72,167.107,417.133,161.987,417.133z M113.347,417.133H97.133c-5.12,0-8.533-3.413-8.533-8.533
		c0-5.12,3.413-8.533,8.533-8.533h16.213c5.12,0,8.533,3.413,8.533,8.533C121.88,413.72,117.613,417.133,113.347,417.133z
		 M237.933,400.067c-1.707,0-3.413-0.853-5.12-1.707c-3.413-2.56-4.267-8.533-1.707-11.947c2.56-3.413,4.267-7.68,5.12-11.947
		s5.973-7.68,10.24-5.973c4.267,0.853,7.68,5.973,5.973,10.24c-1.707,5.973-4.267,11.947-8.533,17.92
		C243.053,398.36,240.493,400.067,237.933,400.067z M241.347,353.133c-2.56,0-5.973-1.707-7.68-4.267
		c-2.56-3.413-5.12-6.827-8.533-10.24c-3.413-2.56-4.267-8.533-1.707-11.947c2.56-3.413,8.533-4.267,11.947-1.707
		c5.12,4.267,9.387,9.387,12.8,14.507c2.56,4.267,0.853,9.387-3.413,11.947C243.907,353.133,242.2,353.133,241.347,353.133z
		 M199.533,331.8H183.32c-5.12,0-8.533-3.413-8.533-8.533c0-5.12,3.413-8.533,8.533-8.533h16.213c5.12,0,8.533,3.413,8.533,8.533
		C208.067,328.387,204.653,331.8,199.533,331.8z M150.893,331.8H134.68c-5.12,0-8.533-3.413-8.533-8.533
		c0-5.12,3.413-8.533,8.533-8.533h16.213c5.12,0,8.533,3.413,8.533,8.533C159.427,328.387,156.013,331.8,150.893,331.8z"/>
	<path d="M101.4,331.8h-8.533c-5.12,0-8.533-3.413-8.533-8.533c0-5.12,3.413-8.533,8.533-8.533h8.533
		c5.12,0,8.533,3.413,8.533,8.533C109.933,328.387,106.52,331.8,101.4,331.8z"/>
</g>
<g>
</g>
<g>
</g>
<g>
</g>
<g>
</g>
<g>
</g>
<g>
</g>
<g>
</g>
<g>
</g>
<g>
</g>
<g>
</g>
<g>
</g>
<g>
</g>
<g>
</g>
<g>
</g>
<g>
</g>
</svg>
