<svg xmlns="http://www.w3.org/2000/svg" x="0px" y="0px"
width="500" height="500"
viewBox="0 0 172 172"
style=" fill:#000000;"><g fill="none" fill-rule="nonzero" stroke="none" stroke-width="1" stroke-linecap="butt" stroke-linejoin="miter" stroke-miterlimit="10" stroke-dasharray="" stroke-dashoffset="0" font-family="none" font-weight="none" font-size="none" text-anchor="none" style="mix-blend-mode: normal"><path d="M0,172v-172h172v172z" fill="none"></path><g><g><g fill="#ffcf15"><path d="M159.43594,120.76953c3.78015,4.00344 5.87343,9.30882 5.84531,14.81484c0.03345,5.48709 -2.06182,10.77344 -5.84531,14.74766l-14.17656,14.81484l-14.17656,-14.81484c-7.79375,-8.19688 -7.79375,-21.43281 0,-29.52891c3.67252,-3.91653 8.80026,-6.14132 14.1693,-6.14768c5.36904,-0.00636 10.50204,2.20627 14.18383,6.11409zM153.65781,132.72891c0,-4.65688 -3.77515,-8.43203 -8.43203,-8.43203c-4.65688,0 -8.43203,3.77515 -8.43203,8.43203c0,4.65688 3.77515,8.43203 8.43203,8.43203c2.23763,0.00429 4.38484,-0.8827 5.96708,-2.46495c1.58224,-1.58224 2.46924,-3.72946 2.46495,-5.96708z"></path><path d="M40.91719,12.69844c3.78015,4.00344 5.87343,9.30882 5.84531,14.81484c0.03345,5.48709 -2.06182,10.77344 -5.84531,14.74766l-14.17656,14.81484l-14.17656,-14.81484c-7.79375,-8.19687 -7.79375,-21.43281 0,-29.52891c3.66159,-3.9361 8.79338,-6.17477 14.16926,-6.18114c5.37588,-0.00637 10.51296,2.22013 14.18387,6.14755zM35.17266,24.65781c0,-4.65688 -3.77515,-8.43203 -8.43203,-8.43203c-4.65688,0 -8.43203,3.77515 -8.43203,8.43203c0,4.65688 3.77515,8.43203 8.43203,8.43203c2.23763,0.00429 4.38484,-0.8827 5.96708,-2.46495c1.58224,-1.58224 2.46924,-3.72946 2.46495,-5.96708z"></path></g><g fill="#2b0a2c"><path d="M26.74063,12.9c-6.51221,0 -11.79141,5.27919 -11.79141,11.79141c0,6.51221 5.27919,11.79141 11.79141,11.79141c6.51221,0 11.79141,-5.27919 11.79141,-11.79141c-0.00833,-6.50876 -5.28265,-11.78308 -11.79141,-11.79141zM26.74063,29.73047c-2.80155,0 -5.07266,-2.27111 -5.07266,-5.07266c0,-2.80155 2.27111,-5.07266 5.07266,-5.07266c2.80155,0 5.07266,2.27111 5.07266,5.07266c-0.0094,2.79765 -2.27501,5.06325 -5.07266,5.07266z"></path><path d="M145.25938,111.2625c-6.28927,-0.00827 -12.29959,2.5954 -16.59531,7.18906c-9.00312,9.37266 -9.00312,24.79219 0,34.26562l9.07031,9.54063h-83.64844c-1.87932,-0.01733 -3.67206,-0.79257 -4.97188,-2.15c-1.3326,-1.29733 -2.08383,-3.07848 -2.08281,-4.93828c0.00106,-1.86761 0.74573,-3.65794 2.06948,-4.97539c1.32375,-1.31745 3.11761,-2.05357 4.98521,-2.04571h27.37891c3.52724,-0.02151 6.9004,-1.44815 9.37266,-3.96406c2.49846,-2.4647 3.90248,-5.8295 3.89688,-9.33906c-0.00303,-3.51528 -1.40311,-6.88523 -3.89194,-9.36776c-2.48883,-2.48253 -5.86231,-3.87406 -9.37759,-3.86818h-49.04687c-1.92434,-0.02174 -3.76119,-0.80723 -5.10625,-2.18359c-1.3643,-1.33383 -2.12817,-3.1647 -2.11641,-5.07266c-0.00164,-1.91299 0.75987,-3.74761 2.11571,-5.09714c1.35584,-1.34953 3.19399,-2.10248 5.10695,-2.09192h106.99609c11.11953,0 20.15625,-9.20469 20.15625,-20.32422v-36.78516c0,-11.03922 -8.94906,-19.98828 -19.98828,-19.98828c-11.03922,0 -19.98828,8.94906 -19.98828,19.98828v24.69141c0,5.54297 -4.53516,10.24609 -10.07812,10.24609h-54.42187c-1.17283,-0.02785 -2.28575,-0.52383 -3.09062,-1.37734c-0.82499,-0.80202 -1.28619,-1.90648 -1.27656,-3.05703c-0.00103,-1.15549 0.45984,-2.26346 1.28004,-3.07735c0.8202,-0.8139 1.9317,-1.26619 3.08715,-1.25624h39.13672c3.00008,-0.02452 5.86617,-1.24594 7.96172,-3.39297c2.11618,-2.09428 3.30238,-4.95086 3.29219,-7.92812c-0.00151,-2.98117 -1.18874,-5.83932 -3.2999,-7.94418c-2.11116,-2.10486 -4.97284,-3.28354 -7.95401,-3.27613h-59.52812l8.63359,-9.10391c9.04792,-9.61708 9.04792,-24.61496 0,-34.23203c-4.31148,-4.56713 -10.31459,-7.15554 -16.59531,-7.15554c-6.28072,0 -12.28383,2.58841 -16.59531,7.15554c-9.00313,9.37266 -9.00313,24.725 0,34.19844l14.17656,14.81484c0.62899,0.66461 1.50369,1.04122 2.41875,1.04141v0.06719c0.26875,0 0.57109,-0.03359 0.83984,-0.03359h66.65c1.19033,-0.0164 2.3381,0.44229 3.18927,1.27454c0.85117,0.83226 1.33554,1.96944 1.34588,3.15983c-0.00081,1.21438 -0.47011,2.38163 -1.31016,3.25859c-0.84832,0.8708 -2.00934,1.36665 -3.225,1.37734h-39.13672c-6.09817,0.04744 -11.0167,5.00438 -11.0167,11.10273c0,6.09835 4.91853,11.0553 11.0167,11.10273h54.42188c9.27188,0 16.79688,-7.69297 16.79688,-16.96484v-24.69141c0.00371,-7.32702 5.94251,-13.26582 13.26953,-13.26953c7.32052,0.01938 13.25015,5.94901 13.26953,13.26953v36.78516c0,7.42422 -6.01328,13.60547 -13.4375,13.60547h-106.99609c-3.68457,-0.01482 -7.22395,1.43541 -9.83879,4.03134c-2.61484,2.59593 -4.0907,6.1247 -4.10262,9.80928c-0.00852,3.71087 1.453,7.27408 4.06484,9.91016c2.60721,2.64261 6.1643,4.13078 9.87656,4.13203h49.04688c1.72614,-0.02052 3.38898,0.64919 4.61905,1.86034c1.23007,1.21115 1.92549,2.86341 1.93173,4.58966c0.01267,3.63405 -2.9168,6.59356 -6.55078,6.61797h-27.37891c-7.60686,0 -13.77344,6.16658 -13.77344,13.77344c0,7.60686 6.16658,13.77344 13.77344,13.77344h91.375v-0.50391c0.84563,-0.04851 1.6399,-0.42158 2.21719,-1.04141l14.17656,-14.81484c4.3906,-4.59257 6.82395,-10.71208 6.78594,-17.06562c0.02604,-6.37121 -2.40436,-12.50737 -6.78594,-17.13281c-4.32473,-4.54401 -10.32225,-7.11784 -16.59531,-7.12187zM15.01641,39.90937c-6.55078,-6.88672 -6.58438,-18.07344 0,-24.89297c3.043,-3.25685 7.30057,-5.10563 11.75781,-5.10563c4.45724,0 8.71481,1.84878 11.75781,5.10563c6.57168,7.00432 6.58637,17.90456 0.03359,24.92656l-11.75781,12.26172zM157.01719,147.98047l-11.75781,12.26172l-11.75781,-12.26172c-6.55078,-6.88672 -6.58438,-18.07344 0,-24.89297c3.043,-3.25685 7.30057,-5.10563 11.75781,-5.10563c4.45724,0 8.71481,1.84878 11.75781,5.10563c6.58447,6.99141 6.58447,17.90156 0,24.89297z"></path><path d="M145.25938,120.9375c-6.51221,0 -11.79141,5.27919 -11.79141,11.79141c0,6.51221 5.27919,11.79141 11.79141,11.79141c6.51221,0 11.79141,-5.27919 11.79141,-11.79141c-0.00833,-6.50876 -5.28265,-11.78308 -11.79141,-11.79141zM145.25938,137.80156c-2.80155,0 -5.07266,-2.27111 -5.07266,-5.07266c0,-2.80155 2.27111,-5.07266 5.07266,-5.07266c2.80155,0 5.07266,2.27111 5.07266,5.07266c-0.0094,2.79765 -2.27501,5.06325 -5.07266,5.07266z"></path></g></g></g></g></svg>