<svg xmlns="http://www.w3.org/2000/svg" x="0px" y="0px"
width="64" height="64"
viewBox="0 0 172 172"
style=" fill:#000000;"><g fill="none" fill-rule="nonzero" stroke="none" stroke-width="1" stroke-linecap="butt" stroke-linejoin="miter" stroke-miterlimit="10" stroke-dasharray="" stroke-dashoffset="0" font-family="none" font-weight="none" font-size="none" text-anchor="none" style="mix-blend-mode: normal"><path d="M0,172v-172h172v172z" fill="none"></path><g><path d="M147.43625,39.91273v43.88688c0.00318,34.09105 -20.45911,64.85204 -51.90234,78.02484l-10.29313,4.46461l-9.83625,-4.11187c-30.87947,-13.4271 -50.84959,-43.89559 -50.84078,-77.56797v-44.69648l61.43625,-34.2018z" fill="#2b0a2c"></path><path d="M33.25781,45.11305v39.49617c0.02065,30.15308 17.91633,57.4247 45.56992,69.445l6.31227,2.62367l0.76762,-140.84516z" fill="#ffca0c"></path><path d="M86.0168,15.83273l-0.83984,140.83575l6.92031,-2.99522c28.2028,-11.76829 46.58994,-39.31073 46.64492,-69.8703v-38.68992z" fill="#ffcf15"></path><path d="M86,54.90227c17.1748,0 31.09773,13.92293 31.09773,31.09773c0,17.1748 -13.92293,31.09773 -31.09773,31.09773c-0.1982,0 -0.39641,-0.00336 -0.59125,-0.00672c-17.00764,-0.32977 -30.59377,-14.26446 -30.49268,-31.27499c0.10108,-17.01053 13.85186,-30.78278 30.86222,-30.9104c0.07391,-0.00336 0.14781,-0.00336 0.22172,-0.00336z" fill="#2b0a2c"></path><path d="M103.20672,82.13672l-8.60336,8.38836l2.03242,11.84516l-10.63578,-5.59336l-10.63578,5.59336l2.03242,-11.84516l-8.60336,-8.38836l11.88883,-1.73008l5.31789,-10.77687l5.31789,10.77687z" fill="#ffcf15"></path><path d="M43.33594,84.60922v-39.49617l42.54111,-23.6584l0.03057,-5.62191l-52.6498,29.28031v39.49617c0.02065,30.15308 17.91633,57.4247 45.56992,69.445l6.31227,2.62367l0.02385,-4.37559c-25.62295,-12.83777 -41.80974,-39.03399 -41.82791,-67.69309z" fill="#e8b701"></path><path d="M64.98711,86c-0.00093,-15.22921 11.02707,-28.21858 26.05464,-30.68856c-1.66679,-0.27223 -3.35288,-0.40907 -5.04175,-0.40917c-0.07391,0 -0.14781,0 -0.22172,0.00336c-17.01036,0.12762 -30.76113,13.89986 -30.86222,30.9104c-0.10108,17.01053 13.48505,30.94522 30.49268,31.27499c0.19484,0.00336 0.39305,0.00672 0.59125,0.00672c1.68796,-0.00019 3.37315,-0.13691 5.03906,-0.40884c-15.02626,-2.47183 -26.05257,-15.46069 -26.05195,-30.6889z" fill="#2b0a2c"></path><path d="M52.49326,118.93061c-0.73444,0.00054 -1.41104,-0.39845 -1.76602,-1.04141c-6.35069,-11.51765 -9.68437,-24.45473 -9.69079,-37.6072v-10.58841c0,-1.1132 0.90243,-2.01562 2.01563,-2.01562c1.1132,0 2.01563,0.90243 2.01563,2.01563v10.58841c0.00604,12.47077 3.16683,24.73733 9.18823,35.65809c0.34456,0.62409 0.33384,1.38377 -0.02821,1.99788c-0.36205,0.61411 -1.02156,0.9913 -1.73445,0.99197z" fill="#f4f8fc"></path><path d="M43.05207,63.3857c-1.1132,0 -2.01562,-0.90243 -2.01562,-2.01562v-1.82784c0,-1.1132 0.90243,-2.01562 2.01563,-2.01562c1.1132,0 2.01563,0.90243 2.01563,2.01563v1.82784c0,1.1132 -0.90243,2.01563 -2.01562,2.01563z" fill="#f4f8fc"></path></g></g></svg>