<svg xmlns="http://www.w3.org/2000/svg" x="0px" y="0px"
width="50" height="50"
viewBox="0 0 172 172"
style=" fill:#000000;"><g fill="none" fill-rule="nonzero" stroke="none" stroke-width="1" stroke-linecap="butt" stroke-linejoin="miter" stroke-miterlimit="10" stroke-dasharray="" stroke-dashoffset="0" font-family="none" font-weight="none" font-size="none" text-anchor="none" style="mix-blend-mode: normal"><path d="M0,172v-172h172v172z" fill="none"></path><g><path d="M145.17875,57.55908c-4.28208,-0.69875 -8.3205,2.20375 -9.01925,6.48583l-4.24267,27.41608l-17.13908,23.4135l6.33892,4.64042l28.49467,-38.92217l2.05683,-14.01442c0.69875,-4.28567 -2.20733,-8.3205 -6.48942,-9.01925z" fill="#eb7900"></path><path d="M155.66,46.61917c-4.20683,-0.51958 -8.03383,2.4725 -8.55342,6.67575l-4.67267,37.09825l-18.275,24.9615l-6.33892,-4.64042l15.46925,-21.12733c2.56208,-3.50092 1.80242,-8.41725 -1.6985,-10.97933c-3.50092,-2.56208 -8.41725,-1.80242 -10.97933,1.6985l-27.44475,36.99075v26.0365h43v-17.88442l19.23175,-26.1655c0.01792,-0.0215 0.02508,-0.04658 0.03942,-0.07167c0.99258,-1.12158 1.67342,-2.54058 1.8705,-4.13875l5.02383,-39.904c0.51958,-4.20325 -2.46892,-8.03383 -6.67217,-8.54983z" fill="#ffcf15"></path><rect x="25" y="37" transform="scale(3.58333,3.58333)" width="14" height="8" fill="#2b0a2c"></rect><rect x="26" y="37" transform="scale(3.58333,3.58333)" width="12" height="3" fill="#5f4461"></rect><path d="M26.82125,57.55908c4.28208,-0.69875 8.3205,2.20375 9.01925,6.48583l4.24267,27.41608l17.13908,23.4135l-6.33892,4.64042l-28.49467,-38.92217l-2.05683,-14.01442c-0.69875,-4.28567 2.20733,-8.3205 6.48942,-9.01925z" fill="#eb7900"></path><path d="M51.38858,80.30608c-2.56208,-3.50092 -7.47842,-4.26058 -10.97933,-1.6985c-3.50092,2.56208 -4.26058,7.47842 -1.6985,10.97933l15.46925,21.12733l-6.33892,4.64042l-18.275,-24.9615l-4.67267,-37.09825c-0.51958,-4.20683 -4.34658,-7.19533 -8.55342,-6.67575c-4.20683,0.51958 -7.19533,4.34658 -6.67575,8.55342l5.02742,39.90042c0.19708,1.59817 0.87792,3.01717 1.8705,4.13875c0.01433,0.0215 0.02508,0.04658 0.03942,0.07167l19.23175,26.1655v17.88442h43v-26.0365z" fill="#ffcf15"></path><rect x="9" y="37" transform="scale(3.58333,3.58333)" width="14" height="8" fill="#2b0a2c"></rect><rect x="10" y="37" transform="scale(3.58333,3.58333)" width="12" height="3" fill="#5f4461"></rect><g><path d="M111.08333,46.58333c0,14.44083 -7.095,27.1975 -17.91667,35.08083c-2.22167,1.68417 -4.6225,3.1175 -7.16667,4.33583c-2.54417,-1.21833 -4.945,-2.65167 -7.16667,-4.33583c-10.82167,-7.88333 -17.91667,-20.64 -17.91667,-35.08083c0,-17.415 10.35583,-32.39333 25.08333,-39.41667c14.7275,7.02333 25.08333,22.00167 25.08333,39.41667z" fill="#3ddab4"></path><path d="M78.83333,60.91667v35.83333h14.33333v-35.83333z" fill="#3ddab4"></path><path d="M93.16667,60.91667v20.7475c-2.22167,1.68417 -4.6225,3.1175 -7.16667,4.33583c-2.54417,-1.21833 -4.945,-2.65167 -7.16667,-4.33583v-20.7475z" fill="#00b569"></path></g></g></g></svg>