<svg xmlns="http://www.w3.org/2000/svg" x="0px" y="0px"
width="64" height="64"
viewBox="0 0 172 172"
style=" fill:#000000;"><g fill="none" fill-rule="nonzero" stroke="none" stroke-width="1" stroke-linecap="butt" stroke-linejoin="miter" stroke-miterlimit="10" stroke-dasharray="" stroke-dashoffset="0" font-family="none" font-weight="none" font-size="none" text-anchor="none" style="mix-blend-mode: normal"><path d="M0,172v-172h172v172z" fill="none"></path><g fill="#ffffff"><g><circle cx="256" cy="198.799" transform="scale(0.33594,0.33594)" r="88.026"></circle><rect x="131.873" y="307.569" transform="scale(0.33594,0.33594)" width="248.254" height="93.657" rx="46.829" ry="46.8285"></rect><path d="M86.00148,170.32166c-27.41087,-0.01856 -53.10456,-13.35108 -68.90078,-35.75276c-15.79621,-22.40169 -19.72621,-51.08055 -10.53877,-76.90586c0.37817,-1.04256 1.52752,-1.58376 2.57206,-1.21113c1.04455,0.37263 1.59185,1.51909 1.22477,2.5656c-3.08646,8.66113 -4.65821,17.78911 -4.64635,26.98374c0,44.27159 36.01747,80.28906 80.28906,80.28906c44.27159,0 80.28906,-36.01747 80.28906,-80.28906c0,-44.27159 -36.01751,-80.28906 -80.28906,-80.28906c-27.95729,0 -53.46895,14.19437 -68.24362,37.96997c-0.58758,0.94551 -1.8304,1.23567 -2.77592,0.64809c-0.94551,-0.58758 -1.23567,-1.8304 -0.64809,-2.77592c15.37332,-24.80411 42.48574,-39.88849 71.66763,-39.8733c34.1044,-0.00001 64.85066,20.54398 77.90185,52.05233c13.05119,31.50836 5.83708,67.77604 -18.27838,91.89148c-15.77847,15.86491 -37.24821,24.75796 -59.62346,24.69681z"></path><path d="M11.0291,54.00709c-0.6853,-0.00083 -1.32327,-0.34963 -1.69385,-0.92609c-0.37058,-0.57646 -0.42304,-1.30166 -0.13929,-1.92545c0.46084,-1.01174 0.95893,-2.05204 1.48054,-3.09183c0.49916,-0.99502 1.71043,-1.397 2.70546,-0.89784c0.99502,0.49916 1.397,1.71043 0.89784,2.70546c-0.49907,0.99488 -0.97516,1.98905 -1.4151,2.95504c-0.3275,0.71938 -1.04517,1.18102 -1.8356,1.18072z"></path><path d="M86,98.37083c-17.44486,0 -31.58671,-14.14184 -31.58672,-31.5867c-0.00001,-17.44486 14.14182,-31.58672 31.58668,-31.58675c17.44486,-0.00002 31.58673,14.1418 31.58677,31.58666c-0.01968,17.43672 -14.15001,31.56708 -31.58672,31.58679zM86,39.22863c-11.14516,0 -21.19289,6.71368 -25.45795,17.01047c-4.26506,10.29678 -1.90752,22.14889 5.97331,30.0297c7.88082,7.88081 19.73294,10.23832 30.02971,5.97323c10.29677,-4.26509 17.01043,-14.31283 17.0104,-25.45799c-0.01724,-15.21131 -12.34416,-27.53821 -27.55547,-27.55541z"></path><path d="M111.96733,136.80272h-51.93466c-9.80146,0 -17.74711,-7.94565 -17.74711,-17.74711c0,-9.80146 7.94565,-17.74711 17.74711,-17.74711h51.93466c9.80146,0 17.74711,7.94565 17.74711,17.74711c0,9.80146 -7.94565,17.74711 -17.74711,17.74711zM60.03267,105.33992c-7.57506,0 -13.71586,6.1408 -13.71586,13.71586c0,7.57506 6.1408,13.71586 13.71586,13.71586h51.93466c7.57506,0 13.71586,-6.1408 13.71586,-13.71586c0,-7.57506 -6.1408,-13.71586 -13.71586,-13.71586z"></path></g></g></g></svg>