<svg xmlns="http://www.w3.org/2000/svg" x="0px" y="0px"
width="64" height="64"
viewBox="0 0 172 172"
style=" fill:#000000;"><g fill="none" fill-rule="nonzero" stroke="none" stroke-width="none" stroke-linecap="butt" stroke-linejoin="miter" stroke-miterlimit="10" stroke-dasharray="" stroke-dashoffset="0" font-family="none" font-weight="none" font-size="none" text-anchor="none" style="mix-blend-mode: normal"><path d="M0,172v-172h172v172z" fill="none" stroke="none" stroke-width="1"></path><g stroke="none" stroke-width="1"><path d="M169.17813,86c0,30.77188 -16.6625,57.64687 -41.52187,72.025v8.6h-83.3125v-8.0625c0,0 -2.41875,-1.88125 -4.03125,-2.95625c-22.575,-14.91562 -37.49062,-40.58125 -37.49062,-69.60625c0,-45.95625 37.22187,-83.17812 83.17812,-83.17812c45.95625,0 83.17812,37.22187 83.17812,83.17812z" fill="#686499"></path><path d="M115.025,61.8125h-57.78125c-10.2125,0 -18.8125,7.65937 -20.02187,17.7375l-3.62812,30.6375h104.8125l-3.35937,-30.50312c-1.20937,-10.2125 -9.80938,-17.87188 -20.02188,-17.87188z" fill="#ebd7ff"></path><path d="M115.025,61.8125h-28.75625v48.375h52.1375l-3.35937,-30.50312c-1.20937,-10.2125 -9.80938,-17.87188 -20.02188,-17.87188z" fill="#cfa2ed"></path><path d="M33.59375,99.4375h104.8125v48.375h-104.8125z" fill="#fcca3d"></path><path d="M86,147.00625h52.40625v-45.6875l-52.40625,-4.3z" fill="#f2a50c"></path><path d="M143.78125,102.6625h-13.4375c-4.43438,0 -8.0625,3.62812 -8.0625,8.0625v37.0875h29.5625v-37.0875c0,-4.43438 -3.62813,-8.0625 -8.0625,-8.0625z" fill="#fcca3d"></path><path d="M151.84375,151.84375c-2.28438,0 -4.03125,-1.74687 -4.03125,-4.03125v-36.28125c0,-2.28437 -1.74687,-4.03125 -4.03125,-4.03125h-13.4375c-2.28438,0 -4.03125,1.74688 -4.03125,4.03125c0,2.28437 -1.74688,4.03125 -4.03125,4.03125c-2.28437,0 -4.03125,-1.74688 -4.03125,-4.03125c0,-6.71875 5.375,-12.09375 12.09375,-12.09375h13.4375c6.71875,0 12.09375,5.375 12.09375,12.09375v36.28125c0,2.28438 -1.74687,4.03125 -4.03125,4.03125z" fill="#444b54"></path><path d="M41.11875,102.6625h-13.4375c-4.43438,0 -8.0625,3.62812 -8.0625,8.0625v37.0875h29.5625v-37.0875c0,-4.43438 -3.62812,-8.0625 -8.0625,-8.0625z" fill="#fcca3d"></path><path d="M137.0625,131.6875h-19.8875c0,-6.18125 -4.56875,-11.2875 -10.61562,-12.09375h-0.13438c-6.71875,-0.80625 -34.13125,-0.80625 -40.85,0h-0.13438c-6.04687,0.80625 -10.61562,5.9125 -10.61562,12.09375h-19.75313c-2.28437,0 -4.03125,1.74687 -4.03125,4.03125v12.09375h110.05313v-12.09375c0,-2.28438 -1.74687,-4.03125 -4.03125,-4.03125z" fill="#ffffff"></path><path d="M137.0625,104.40938c-0.13438,0 -0.40312,0 -0.5375,0c-29.69688,-4.43437 -71.21875,-4.43437 -100.91562,0c-2.15,0.26875 -4.3,-1.20937 -4.56875,-3.35937c-0.26875,-2.15 1.20937,-4.3 3.35937,-4.56875c30.90625,-4.56875 72.42812,-4.56875 103.33438,0c2.15,0.26875 3.7625,2.41875 3.35938,4.56875c-0.40312,1.88125 -2.01562,3.35938 -4.03125,3.35938z" fill="#444b54"></path><path d="M137.86875,107.5c-2.01562,0 -3.7625,-1.47812 -4.03125,-3.49375l-2.82188,-23.78438c-0.94063,-8.19687 -7.79375,-14.37812 -15.99063,-14.37812h-57.78125c-8.19687,0 -15.05,6.04688 -15.99062,14.24375l-2.82188,23.91875c-0.26875,2.15 -2.28437,3.7625 -4.43438,3.49375c-2.15,-0.26875 -3.7625,-2.28437 -3.49375,-4.43438l2.82187,-23.91875c1.47813,-12.09375 11.825,-21.36562 24.05312,-21.36562h57.78125c12.3625,0 22.70938,9.27188 24.05313,21.5l2.82187,23.78437c0.26875,2.15 -1.34375,4.16563 -3.49375,4.43438c-0.40313,0 -0.5375,0 -0.67187,0zM143.78125,147.8125v18.8125h-17.46875v-18.8125M45.15,147.8125v18.8125h-17.46875v-18.8125" fill="#444b54"></path><path d="M143.78125,170.65625h-17.46875c-2.28437,0 -4.03125,-1.74687 -4.03125,-4.03125v-18.8125c0,-2.28438 1.74688,-4.03125 4.03125,-4.03125c2.28438,0 4.03125,1.74687 4.03125,4.03125v14.78125h9.40625v-14.78125c0,-2.28438 1.74687,-4.03125 4.03125,-4.03125c2.28438,0 4.03125,1.74687 4.03125,4.03125v18.8125c0,2.28438 -1.74687,4.03125 -4.03125,4.03125zM45.15,170.65625h-17.46875c-2.28438,0 -4.03125,-1.74687 -4.03125,-4.03125v-18.8125c0,-2.28438 1.74687,-4.03125 4.03125,-4.03125c2.28437,0 4.03125,1.74687 4.03125,4.03125v14.78125h9.40625v-14.78125c0,-2.28438 1.74688,-4.03125 4.03125,-4.03125c2.28437,0 4.03125,1.74687 4.03125,4.03125v18.8125c0,2.28438 -1.88125,4.03125 -4.03125,4.03125z" fill="#444b54"></path><path d="M155.875,151.84375h-139.75c-2.28437,0 -4.03125,-1.74687 -4.03125,-4.03125c0,-2.28438 1.74688,-4.03125 4.03125,-4.03125h139.75c2.28438,0 4.03125,1.74687 4.03125,4.03125c0,2.28438 -1.74687,4.03125 -4.03125,4.03125zM99.4375,57.78125v4.03125h-26.875v-4.03125v0c0,-4.43437 3.62812,-8.0625 8.0625,-8.0625h10.75c4.43438,0 8.0625,3.62813 8.0625,8.0625zM147.8125,170.65625h-120.13125c-2.28438,0 -4.03125,-1.74687 -4.03125,-4.03125c0,-2.28438 1.74687,-4.03125 4.03125,-4.03125h120.13125c2.28438,0 4.03125,1.74687 4.03125,4.03125c0,2.28438 -1.74687,4.03125 -4.03125,4.03125z" fill="#444b54"></path><path d="M143.78125,115.5625v0h-13.4375c-2.28438,0 -4.03125,-1.74688 -4.03125,-4.03125c0,-2.28437 1.74687,-4.03125 4.03125,-4.03125v0h13.4375c2.28438,0 4.03125,1.74688 4.03125,4.03125c0,2.28437 -1.74687,4.03125 -4.03125,4.03125z" fill="#ffffff"></path><path d="M20.15625,151.84375c-2.28438,0 -4.03125,-1.74687 -4.03125,-4.03125v-37.0875c0,-6.71875 5.375,-12.09375 12.09375,-12.09375h13.4375c6.71875,0 12.09375,5.375 12.09375,12.09375c0,2.28437 -1.74687,4.03125 -4.03125,4.03125c-2.28438,0 -4.03125,-1.74688 -4.03125,-4.03125c0,-2.28438 -1.74687,-4.03125 -4.03125,-4.03125h-13.4375c-2.28438,0 -4.03125,1.74687 -4.03125,4.03125v37.0875c0,2.28438 -1.74687,4.03125 -4.03125,4.03125z" fill="#444b54"></path><path d="M28.21875,114.75625c-2.28438,0 -4.03125,-1.74688 -4.03125,-4.03125c0,-2.28438 1.74687,-4.03125 4.03125,-4.03125h13.4375v0c2.28438,0 4.03125,1.74687 4.03125,4.03125c0,2.28437 -1.74687,4.03125 -4.03125,4.03125h-13.4375z" fill="#ffffff"></path><path d="M166.625,162.59375c-2.2264,0 -4.03125,1.80485 -4.03125,4.03125c0,2.2264 1.80485,4.03125 4.03125,4.03125c2.2264,0 4.03125,-1.80485 4.03125,-4.03125c0,-2.2264 -1.80485,-4.03125 -4.03125,-4.03125z" fill="#444b54"></path></g><g fill="#f1c40f" stroke="none" stroke-width="1"><path d="M25.14,28.75v-9.08l0.37,-3.47h-0.15l-1.07,2.8l-3.73,6.52h-1.1l-3.92,-6.55l-1.1,-2.77h-0.13l0.5,3.45v9.1h-3.25v-17.5h3.13l4.67,8l0.83,2h0.1l0.75,-2.05l4.42,-7.95h3.1v17.5zM31.56,28.75v-17.5h10.38v3.05h-6.95v4.08h6.32v3.05h-6.32v4.27h7.07v3.05zM57.03,11.25v3.05h-5.09v14.45h-3.43v-14.45h-5.13v-3.05zM58.81,28.75v-17.5h10.38v3.05h-6.96v4.08h6.33v3.05h-6.33v4.27h7.08v3.05zM71.86,28.75v-17.32c0.38667,-0.07333 0.8,-0.13667 1.24,-0.19c0.44,-0.06 0.88,-0.10667 1.32,-0.14c0.44,-0.03333 0.87,-0.06 1.29,-0.08c0.41333,-0.01333 0.79667,-0.02 1.15,-0.02v0c0.81333,0 1.61667,0.07333 2.41,0.22c0.79333,0.15333 1.50333,0.41333 2.13,0.78c0.62667,0.36667 1.12667,0.87 1.5,1.51c0.37333,0.64 0.56,1.44333 0.56,2.41v0c0,1.43333 -0.33333,2.6 -1,3.5c-0.66667,0.9 -1.56,1.52667 -2.68,1.88v0l1.23,0.77l4,6.68h-3.95l-3.98,-6.85l-1.8,-0.33v7.18zM77.11,14.05v0c-0.35333,0 -0.7,0.00667 -1.04,0.02c-0.34,0.02 -0.60333,0.05333 -0.79,0.1v0v5.08h1.45c0.95333,0 1.71333,-0.21667 2.28,-0.65c0.56667,-0.43333 0.85,-1.15 0.85,-2.15v0c0,-0.75333 -0.23333,-1.34 -0.7,-1.76c-0.46667,-0.42667 -1.15,-0.64 -2.05,-0.64zM93.23,28.77v-17.52c0.35333,-0.04667 0.75,-0.08667 1.19,-0.12c0.44,-0.04 0.89333,-0.06667 1.36,-0.08c0.46667,-0.02 0.92333,-0.03333 1.37,-0.04c0.44,-0.00667 0.83333,-0.01 1.18,-0.01v0c1.55333,0 2.88,0.21667 3.98,0.65c1.1,0.43333 1.99,1.04 2.67,1.82c0.68667,0.78667 1.18667,1.72 1.5,2.8c0.32,1.08667 0.48,2.28 0.48,3.58v0c0,1.18667 -0.15,2.32667 -0.45,3.42c-0.3,1.10667 -0.8,2.08333 -1.5,2.93c-0.7,0.85333 -1.62,1.53667 -2.76,2.05c-1.14667,0.51333 -2.56,0.77 -4.24,0.77v0c-0.26667,0 -0.62,-0.00667 -1.06,-0.02c-0.44667,-0.01333 -0.90667,-0.03333 -1.38,-0.06c-0.47333,-0.02667 -0.92667,-0.05333 -1.36,-0.08c-0.43333,-0.02667 -0.76,-0.05667 -0.98,-0.09zM98.61,14.05v0c-0.36667,0 -0.73667,0.00667 -1.11,0.02c-0.37333,0.02 -0.65333,0.04667 -0.84,0.08v0v11.73c0.06667,0.01333 0.18,0.02333 0.34,0.03c0.15333,0.01333 0.32333,0.02333 0.51,0.03c0.18,0.00667 0.35333,0.01333 0.52,0.02c0.16667,0.01333 0.29333,0.02 0.38,0.02v0c0.96667,0 1.77,-0.17333 2.41,-0.52c0.64,-0.34 1.15,-0.79333 1.53,-1.36c0.37333,-0.56667 0.63667,-1.22 0.79,-1.96c0.14667,-0.74667 0.22,-1.51 0.22,-2.29v0c0,-0.68667 -0.06667,-1.37333 -0.2,-2.06c-0.13333,-0.69333 -0.38,-1.31667 -0.74,-1.87c-0.35333,-0.54667 -0.84,-0.99667 -1.46,-1.35c-0.62,-0.34667 -1.40333,-0.52 -2.35,-0.52zM108.86,20v0c0,-2.91333 0.64,-5.16 1.92,-6.74c1.28667,-1.57333 3.12,-2.36 5.5,-2.36v0c1.25333,0 2.34667,0.21667 3.28,0.65c0.93333,0.43333 1.70667,1.05 2.32,1.85c0.62,0.8 1.08,1.75667 1.38,2.87c0.3,1.12 0.45,2.36333 0.45,3.73v0c0,2.92 -0.64667,5.16667 -1.94,6.74c-1.29333,1.57333 -3.12333,2.36 -5.49,2.36v0c-1.26667,0 -2.36667,-0.21667 -3.3,-0.65c-0.93333,-0.43333 -1.70333,-1.05 -2.31,-1.85c-0.60667,-0.8 -1.06,-1.75667 -1.36,-2.87c-0.3,-1.12 -0.45,-2.36333 -0.45,-3.73zM112.46,20v0c0,0.88 0.07667,1.69333 0.23,2.44c0.14667,0.74 0.37333,1.37667 0.68,1.91c0.30667,0.53333 0.70333,0.95 1.19,1.25c0.48,0.3 1.05333,0.45 1.72,0.45v0c1.22,0 2.16333,-0.47333 2.83,-1.42c0.66667,-0.95333 1,-2.49667 1,-4.63v0c0,-0.85333 -0.07,-1.64333 -0.21,-2.37c-0.14,-0.74 -0.36333,-1.38333 -0.67,-1.93c-0.3,-0.54667 -0.69,-0.97667 -1.17,-1.29c-0.48667,-0.30667 -1.08,-0.46 -1.78,-0.46v0c-1.21333,0 -2.15333,0.48667 -2.82,1.46c-0.66667,0.98 -1,2.51 -1,4.59zM127.68,11.25l2.33,9.77l0.32,3.11h0.1l0.35,-3.15l3.05,-9.73h2.25l3,9.77l0.36,3.11h0.09l0.38,-3.15l2.12,-9.73h3.48l-4.82,17.63h-2.31l-3.12,-9.73l-0.43,-2.68h-0.12l-0.43,2.7l-3.1,9.71h-2.42l-4.8,-17.63zM157.94,28.88l-6.58,-9.25l-1.38,-2.75h-0.12l0.4,2.75v9.12h-3.25v-17.62h2.5l6.62,9.32l1.33,2.68h0.12l-0.39,-2.68v-9.2h3.25v17.63z"></path></g><path d="M1.56,39.1v-38.2h168.88v38.2z" fill="#fe0100" stroke="#50e3c2" stroke-width="3" opacity="0"></path></g></svg>